<svg width="15" height="10" viewBox="0 0 15 10" fill="none" xmlns="http://www.w3.org/2000/svg">
<path d="M1.85508 0.000127882H13.1485C13.511 -7.41273e-05 13.8655 0.10617 14.1681 0.305673C14.4707 0.505175 14.708 0.789152 14.8507 1.12235C14.9933 1.45555 15.035 1.82331 14.9704 2.17997C14.9059 2.53662 14.7381 2.86648 14.4878 3.1286L8.84283 9.06153C8.66966 9.24343 8.46134 9.38825 8.23051 9.4872C7.99968 9.58615 7.75115 9.63718 7.5 9.63718C7.24886 9.63718 7.00033 9.58615 6.7695 9.4872C6.53866 9.38825 6.33034 9.24343 6.15717 9.06153L0.512249 3.1286C0.261707 2.86626 0.0937973 2.53607 0.0293959 2.17908C-0.0350055 1.82209 0.0069421 1.45404 0.150023 1.12069C0.293105 0.787349 0.531008 0.503411 0.834156 0.304182C1.1373 0.104952 1.49232 -0.000781081 1.85508 0.000127882Z" fill="#A48BE5"/>
</svg>
